<svg width="24" height="24" viewBox="0 0 24 24" fill="none" xmlns="http://www.w3.org/2000/svg">
<g clip-path="url(#clip0_22_646)">
<path d="M12 0C18.6275 0 24 5.37259 24 12C24 18.6275 18.6275 24 12 24C5.37259 24 0 18.6275 0 12C1.93278e-07 5.37259 5.37259 1.93283e-07 12 0ZM11.9385 13.4766C9.14111 13.4766 6.71435 14.8557 5.51172 16.873C5.45166 16.9739 5.47022 17.1027 5.55469 17.1836C7.21999 18.7769 9.46675 19.7539 11.9385 19.7539C14.4101 19.7538 16.6561 18.7767 18.3213 17.1836C18.4058 17.1028 18.4244 16.9739 18.3643 16.873C17.1617 14.8558 14.7356 13.4767 11.9385 13.4766ZM11.9385 4.24609C9.66141 4.24611 7.81548 6.09208 7.81543 8.36914C7.81543 10.6462 9.66138 12.4922 11.9385 12.4922C14.2156 12.4922 16.0615 10.6463 16.0615 8.36914C16.0615 6.09207 14.2156 4.24609 11.9385 4.24609Z" fill="#B0B0B0"/>
</g>
<defs>
<clipPath id="clip0_22_646">
<rect width="24" height="24" fill="white"/>
</clipPath>
</defs>
</svg>
