<svg width="18" height="18" viewBox="0 0 18 18" fill="none" xmlns="http://www.w3.org/2000/svg">
<g clip-path="url(#clip0_22_665)">
<path fill-rule="evenodd" clip-rule="evenodd" d="M7.59375 1.45312C7.23133 1.45312 6.9375 1.74695 6.9375 2.10938C6.9375 2.52359 6.60171 2.85938 6.1875 2.85938C5.77329 2.85938 5.4375 2.52359 5.4375 2.10938C5.4375 0.918525 6.4029 -0.046875 7.59375 -0.046875H10.4062C11.5971 -0.046875 12.5625 0.918525 12.5625 2.10938C12.5625 2.52359 12.2267 2.85938 11.8125 2.85938C11.3983 2.85938 11.0625 2.52359 11.0625 2.10938C11.0625 1.74695 10.7687 1.45312 10.4062 1.45312H7.59375Z" fill="#202020"/>
<path fill-rule="evenodd" clip-rule="evenodd" d="M1.21875 4.92188C1.21875 4.50766 1.55454 4.17188 1.96875 4.17188H16.0312C16.4455 4.17188 16.7812 4.50766 16.7812 4.92188C16.7812 5.33609 16.4455 5.67188 16.0312 5.67188H1.96875C1.55454 5.67188 1.21875 5.33609 1.21875 4.92188Z" fill="#202020"/>
<path fill-rule="evenodd" clip-rule="evenodd" d="M2.81222 4.42612C2.9546 4.26449 3.1596 4.17188 3.375 4.17188H14.625C14.8404 4.17188 15.0454 4.26449 15.1878 4.42612C15.3302 4.58775 15.3962 4.8028 15.369 5.01648L13.9523 16.1578C13.9523 16.1582 13.9522 16.1586 13.9522 16.159C13.8195 17.2235 12.9128 18.0469 11.8125 18.0469H6.1875C5.08725 18.0469 4.18049 17.2235 4.04783 16.159C4.04778 16.1586 4.04773 16.1582 4.04768 16.1578L2.63099 5.01648C2.60382 4.8028 2.66984 4.58775 2.81222 4.42612ZM4.22641 5.67188L5.53628 15.9731C5.57636 16.2963 5.85324 16.5469 6.1875 16.5469H11.8125C12.1468 16.5469 12.4237 16.2963 12.4637 15.9731L12.464 15.9709L13.7736 5.67188H4.22641Z" fill="#202020"/>
<path fill-rule="evenodd" clip-rule="evenodd" d="M7.59375 8.39062C8.00796 8.39062 8.34375 8.72641 8.34375 9.14062V13.0781C8.34375 13.4923 8.00796 13.8281 7.59375 13.8281C7.17954 13.8281 6.84375 13.4923 6.84375 13.0781V9.14062C6.84375 8.72641 7.17954 8.39062 7.59375 8.39062Z" fill="#202020"/>
<path fill-rule="evenodd" clip-rule="evenodd" d="M10.4062 8.39062C10.8205 8.39062 11.1562 8.72641 11.1562 9.14062V13.0781C11.1562 13.4923 10.8205 13.8281 10.4062 13.8281C9.99204 13.8281 9.65625 13.4923 9.65625 13.0781V9.14062C9.65625 8.72641 9.99204 8.39062 10.4062 8.39062Z" fill="#202020"/>
</g>
<defs>
<clipPath id="clip0_22_665">
<rect width="18" height="18" fill="white"/>
</clipPath>
</defs>
</svg>
