<svg width="18" height="17" viewBox="0 0 18 17" fill="none" xmlns="http://www.w3.org/2000/svg">
<path fill-rule="evenodd" clip-rule="evenodd" d="M13.2196 1.64645C13.0243 1.45118 12.7077 1.45118 12.5124 1.64645L4.2629 9.89599C3.99515 10.1638 3.82147 10.5111 3.76792 10.886L3.58525 12.1646L4.86392 11.982C5.23879 11.9284 5.58613 11.7547 5.85387 11.487L14.1034 3.23744C14.2987 3.04218 14.2987 2.72559 14.1034 2.53032L13.2196 1.64645ZM11.4518 0.585787C12.2328 -0.195262 13.4992 -0.195262 14.2802 0.585787L15.1641 1.46966C15.9451 2.25071 15.9451 3.51705 15.1641 4.2981L6.91453 12.5477C6.41728 13.0449 5.77218 13.3674 5.07605 13.4669L3.4674 13.6967C2.64244 13.8146 1.93533 13.1074 2.05318 12.2825L2.28299 10.6738C2.38244 9.97768 2.70501 9.3326 3.2022 8.83537L11.4518 0.585787Z" fill="#202020"/>
<path fill-rule="evenodd" clip-rule="evenodd" d="M0 15.5C0 15.0858 0.335786 14.75 0.75 14.75H16.75C17.1642 14.75 17.5 15.0858 17.5 15.5C17.5 15.9142 17.1642 16.25 16.75 16.25H0.75C0.335786 16.25 0 15.9142 0 15.5Z" fill="#202020"/>
</svg>
