<svg width="20" height="20" viewBox="0 0 20 20" fill="none" xmlns="http://www.w3.org/2000/svg">
<path fill-rule="evenodd" clip-rule="evenodd" d="M10 1.81818C5.48131 1.81818 1.81818 5.48131 1.81818 10C1.81818 14.5187 5.48131 18.1818 10 18.1818C14.5187 18.1818 18.1818 14.5187 18.1818 10C18.1818 5.48131 14.5187 1.81818 10 1.81818ZM0 10C0 4.47715 4.47715 0 10 0C15.5228 0 20 4.47715 20 10C20 15.5228 15.5228 20 10 20C4.47715 20 0 15.5228 0 10Z" fill="#202020"/>
<path fill-rule="evenodd" clip-rule="evenodd" d="M9.99991 9.09091C10.502 9.09091 10.909 9.49792 10.909 10V13.6364C10.909 14.1384 10.502 14.5455 9.99991 14.5455C9.49783 14.5455 9.09082 14.1384 9.09082 13.6364V10C9.09082 9.49792 9.49783 9.09091 9.99991 9.09091Z" fill="#202020"/>
<path fill-rule="evenodd" clip-rule="evenodd" d="M9.09082 6.36364C9.09082 5.86156 9.49783 5.45454 9.99991 5.45454H10.009C10.5111 5.45454 10.9181 5.86156 10.9181 6.36364C10.9181 6.86571 10.5111 7.27273 10.009 7.27273H9.99991C9.49783 7.27273 9.09082 6.86571 9.09082 6.36364Z" fill="#202020"/>
</svg>
