<svg width="14" height="14" viewBox="0 0 14 14" fill="none" xmlns="http://www.w3.org/2000/svg">
<g clip-path="url(#clip0_22_707)">
<mask id="mask0_22_707" style="mask-type:luminance" maskUnits="userSpaceOnUse" x="0" y="-1" width="15" height="15">
<path d="M14.001 -0.000411987H0.000976562V13.9996H14.001V-0.000411987Z" fill="white"/>
</mask>
<g mask="url(#mask0_22_707)">
<path d="M11.4619 5.74228C11.4619 8.90155 8.90087 11.4626 5.7416 11.4626C4.72539 11.4626 3.76979 11.1969 2.9416 10.7311C2.68887 10.589 2.59918 10.2688 2.74131 10.0161C2.88346 9.76377 3.20311 9.67405 3.45566 9.81582C4.13085 10.1955 4.91026 10.4126 5.7416 10.4126C8.32097 10.4126 10.4119 8.32165 10.4119 5.74228C10.4119 3.16291 8.32097 1.07197 5.7416 1.07197C3.16226 1.07197 1.07129 3.16292 1.07129 5.74228C1.07129 6.58361 1.29347 7.37141 1.68174 8.05214C1.82541 8.304 1.7374 8.62488 1.48555 8.76855C1.23382 8.91204 0.913553 8.8246 0.769823 8.57304C0.293447 7.73794 0.0212879 6.7709 0.0212879 5.74228C0.0212889 2.58301 2.58237 0.0219679 5.7416 0.0219669C8.90087 0.0219669 11.4619 2.58301 11.4619 5.74228Z" fill="white"/>
<path d="M13.8252 13.8231C13.6209 14.0288 13.2885 14.0301 13.0828 13.8259L9.06327 9.83368C8.85758 9.62938 8.85631 9.29702 9.06054 9.09129C9.26483 8.8856 9.59719 8.88434 9.80292 9.08856L13.8225 13.0807C14.0281 13.285 14.0294 13.6174 13.8252 13.8231Z" fill="white"/>
<path d="M7.75346 7.75414C7.54843 7.95916 7.2161 7.95916 7.01107 7.75414L3.72982 4.47289C3.5248 4.26786 3.5248 3.93553 3.72982 3.7305C3.93485 3.52548 4.26718 3.52548 4.47221 3.7305L7.75346 7.01175C7.95848 7.21678 7.95848 7.54911 7.75346 7.75414Z" fill="white"/>
<path d="M4.47221 7.75414C4.26718 7.95916 3.93485 7.95916 3.72982 7.75414C3.5248 7.54911 3.5248 7.21678 3.72982 7.01175L7.01107 3.7305C7.2161 3.52548 7.54843 3.52548 7.75346 3.7305C7.95848 3.93553 7.95848 4.26786 7.75346 4.47289L4.47221 7.75414Z" fill="white"/>
</g>
</g>
<defs>
<clipPath id="clip0_22_707">
<rect width="14" height="14" fill="white" transform="matrix(-1 0 0 1 14 0)"/>
</clipPath>
</defs>
</svg>
