<svg width="20" height="20" viewBox="0 0 20 20" fill="none" xmlns="http://www.w3.org/2000/svg">
<g clip-path="url(#clip0_22_693)">
<mask id="mask0_22_693" style="mask-type:luminance" maskUnits="userSpaceOnUse" x="0" y="0" width="21" height="21">
<path d="M0.0012207 0.00021553H20.0012V20.0002H0.0012207V0.00021553Z" fill="white"/>
</mask>
<g mask="url(#mask0_22_693)">
<path d="M2.34741 1.84094V18.5558C2.34741 19.4423 3.0645 20.1641 3.95386 20.1642H3.95679C4.41081 20.1642 4.84313 19.9834 5.16187 19.6642L9.46265 15.3663C9.60332 15.2249 9.79749 15.1438 10.0007 15.1437C10.2041 15.1437 10.3981 15.2249 10.5388 15.3663L10.5417 15.3683C11.5584 16.383 14.0235 18.8479 14.8455 19.671L14.8474 19.673C15.1621 19.986 15.5875 20.1642 16.0359 20.1642C16.9294 20.164 17.6548 19.4402 17.655 18.546V1.84094C17.655 1.37612 17.4935 0.927494 17.2009 0.570435L17.0681 0.42395C16.6915 0.0469418 16.1802 -0.16394 15.6492 -0.16394H4.35229C3.82169 -0.163847 3.31172 0.0473804 2.9353 0.42395L2.93433 0.422974C2.55787 0.799366 2.34749 1.30984 2.34741 1.84094ZM3.84741 1.84094C3.84749 1.70648 3.90079 1.57865 3.99487 1.4845C4.08893 1.39031 4.21806 1.33615 4.35229 1.33606H15.6492C15.7834 1.33606 15.9124 1.38941 16.0066 1.48352L16.0076 1.4845C16.1015 1.57864 16.1549 1.70656 16.155 1.84094V18.546C16.1548 18.6107 16.102 18.664 16.0359 18.6642C15.9884 18.6642 15.9418 18.646 15.905 18.6095C15.0806 17.7838 12.6175 15.3201 11.6013 14.3058L11.6003 14.3068C11.1764 13.8816 10.5998 13.6437 10.0007 13.6437C9.40181 13.6438 8.82493 13.8808 8.40112 14.3058L4.10132 18.6027L4.10034 18.6046C4.0615 18.6435 4.01039 18.6642 3.95679 18.6642H3.95386C3.89577 18.6641 3.84741 18.6167 3.84741 18.5558V1.84094Z" fill="#202020"/>
</g>
</g>
<defs>
<clipPath id="clip0_22_693">
<rect width="20" height="20" fill="white"/>
</clipPath>
</defs>
</svg>
