<svg width="21" height="21" viewBox="0 0 21 21" fill="none" xmlns="http://www.w3.org/2000/svg">
<path fill-rule="evenodd" clip-rule="evenodd" d="M8.36463 1.66667C12.0638 1.66667 15.0626 4.66543 15.0626 8.36458C15.0626 12.0638 12.0638 15.0625 8.36463 15.0625C4.66553 15.0625 1.66673 12.0638 1.66673 8.36458C1.66673 4.66543 4.66553 1.66667 8.36463 1.66667ZM16.7292 8.36458C16.7292 3.74496 12.9843 0 8.36463 0C3.74503 0 0.000127792 3.74496 0.000127792 8.36458C0.000127792 12.9842 3.74503 16.7292 8.36463 16.7292C12.9843 16.7292 16.7292 12.9842 16.7292 8.36458Z" fill="#202020"/>
<path fill-rule="evenodd" clip-rule="evenodd" d="M13.1006 13.0998C12.7752 13.4252 12.7752 13.9529 13.1006 14.2783L19.0723 20.2506C19.3977 20.576 19.9253 20.5761 20.2508 20.2506C20.5762 19.9252 20.5762 19.3976 20.2508 19.0721L14.2791 13.0999C13.9537 12.7744 13.4261 12.7744 13.1006 13.0998Z" fill="#202020"/>
</svg>
