<svg width="14" height="14" viewBox="0 0 14 14" fill="none" xmlns="http://www.w3.org/2000/svg">
<path d="M12.75 9.231C11.4555 9.231 10.221 8.949 9.0825 8.3925C8.904 8.307 8.697 8.2935 8.508 8.358C8.319 8.424 8.1645 8.562 8.0775 8.7405L7.5375 9.858C5.9175 8.928 4.5735 7.5825 3.642 5.9625L4.761 5.4225C4.941 5.3355 5.0775 5.181 5.1435 4.992C5.208 4.803 5.196 4.596 5.109 4.4175C4.551 3.2805 4.269 2.046 4.269 0.75C4.269 0.336 3.933 0 3.519 0H0.75C0.336 0 0 0.336 0 0.75C0 7.7805 5.7195 13.5 12.75 13.5C13.164 13.5 13.5 13.164 13.5 12.75V9.981C13.5 9.567 13.164 9.231 12.75 9.231Z" fill="#FAFAFA"/>
</svg>
